<!-- icon666.com - MILLIONS vector ICONS FREE --><svg clip-rule="evenodd" fill-rule="evenodd" stroke-linejoin="round" stroke-miterlimit="2" viewBox="0 0 48 48" xmlns="http://www.w3.org/2000/svg"><g transform="translate(-336 -336)"><g id="Icon"><g transform="translate(98 292)"><path d="m247.293 62.707 2 2c.39.391 1.024.391 1.414 0l4-4c.39-.39.39-1.024 0-1.414s-1.024-.39-1.414 0l-3.293 3.293s-1.293-1.293-1.293-1.293c-.39-.39-1.024-.39-1.414 0s-.39 1.024 0 1.414z" fill="#000000" style="fill: rgb(43, 24, 135);"></path></g><g transform="translate(98 300)"><path d="m247.293 62.707 2 2c.39.391 1.024.391 1.414 0l4-4c.39-.39.39-1.024 0-1.414s-1.024-.39-1.414 0l-3.293 3.293s-1.293-1.293-1.293-1.293c-.39-.39-1.024-.39-1.414 0s-.39 1.024 0 1.414z" fill="#000000" style="fill: rgb(43, 24, 135);"></path></g><g transform="translate(98 308)"><path d="m247.293 62.707 2 2c.39.391 1.024.391 1.414 0l4-4c.39-.39.39-1.024 0-1.414s-1.024-.39-1.414 0l-3.293 3.293s-1.293-1.293-1.293-1.293c-.39-.39-1.024-.39-1.414 0s-.39 1.024 0 1.414z" fill="#000000" style="fill: rgb(43, 24, 135);"></path></g><g transform="translate(98 292)"><path d="m258 61h10c.552 0 1-.448 1-1s-.448-1-1-1h-10c-.552 0-1 .448-1 1s.448 1 1 1z" fill="#000000" style="fill: rgb(43, 24, 135);"></path></g><g transform="translate(98 292)"><path d="m258 65h4c.552 0 1-.448 1-1s-.448-1-1-1h-4c-.552 0-1 .448-1 1s.448 1 1 1z" fill="#000000" style="fill: rgb(43, 24, 135);"></path></g><g transform="translate(96 288)"><path d="m260 73h10c.552 0 1-.448 1-1s-.448-1-1-1h-10c-.552 0-1 .448-1 1s.448 1 1 1z" fill="#000000" style="fill: rgb(43, 24, 135);"></path></g><g transform="translate(96 292)"><path d="m260 73h4c.552 0 1-.448 1-1s-.448-1-1-1h-4c-.552 0-1 .448-1 1s.448 1 1 1z" fill="#000000" style="fill: rgb(43, 24, 135);"></path></g><g transform="matrix(.707 -.707 .707 .707 -154.087 370.586)"><path d="m367 370v4c0 .552.448 1 1 1h8c.552 0 1-.448 1-1s-.448-1-1-1h-7v-3c0-.552-.448-1-1-1s-1 .448-1 1z" fill="#000000" style="fill: rgb(43, 24, 135);"></path></g><path d="m372 383c-.404 0-23.074 0-30 0-2.761 0-5-2.239-5-5 0-8.367 0-27.633 0-36 0-2.761 2.239-5 5-5h28c2.761 0 5 2.239 5 5v19.415c4.615 1.307 8 5.554 8 10.585 0 6.071-4.929 11-11 11zm0-20c4.967 0 9 4.033 9 9s-4.033 9-9 9-9-4.033-9-9 4.033-9 9-9zm-8.483 16h-19.517c-1.657 0-3-1.343-3-3v-32c0-1.657 1.343-3 3-3h3v-2h-5c-1.657 0-3 1.343-3 3v36c0 1.657 1.343 3 3 3h23.677c-.806-.568-1.533-1.241-2.16-2zm5.483-17.585v-17.415c0-.552-.448-1-1-1h-3v1c0 1.657-1.343 3-3 3h-12c-1.657 0-3-1.343-3-3v-1h-3c-.552 0-1 .448-1 1v32c0 .552.448 1 1 1h18.201c-.768-1.5-1.201-3.2-1.201-5 0-5.031 3.385-9.278 8-10.585zm4-.37v-19.045c0-1.657-1.343-3-3-3h-5v2h3c1.657 0 3 1.343 3 3v17.045c.33-.03.663-.045 1-.045s.67.015 1 .045zm-10-18.045v1c0 .552-.448 1-1 1h-12c-.552 0-1-.448-1-1v-1zm-14-2v-2h14v2z" fill="#000000" style="fill: rgb(43, 24, 135);"></path></g></g></svg>